<svg xmlns="http://www.w3.org/2000/svg" xmlns:xlink="http://www.w3.org/1999/xlink" fill="none" preserveAspectRatio="xMidYMid meet" style="fill: none;" version="1.0" viewBox="1.4 1.8 238.2 135.8" zoomAndPan="magnify" original_string_length="3341" width="550.2390499772264px" height="314.13647580518017px"><g id="__id0_sliz6m1k6"><path d="M193.068 3.21L39.9088 13.2755C17.9972 14.7155 1.40172 33.6456 2.84172 55.5572L5.70024 99.0534C7.14024 120.965 26.0704 137.56 47.982 136.12L201.142 126.055C223.053 124.615 239.649 105.685 238.209 83.7732L235.35 40.277C233.91 18.3654 214.98 1.77 193.068 3.21Z" style="fill: rgb(242, 242, 242);"/></g><g id="__id1_sliz6m1k6"><path d="M111.288 74.9211L112.568 94.4911L106.357 94.9011L103.188 46.5811L119.658 45.5011C123.838 45.2311 127.487 46.3911 130.597 48.9811C133.747 51.5711 135.457 54.8711 135.717 58.8811C135.987 62.9711 134.727 66.4911 131.938 69.4311C129.237 72.3611 125.777 73.9711 121.547 74.2511L111.288 74.9211ZM109.788 52.1111L110.897 68.9811L121.288 68.3011C123.758 68.1411 125.758 67.1711 127.268 65.4011C128.818 63.6311 129.528 61.5911 129.378 59.3011C129.228 57.0511 128.267 55.1512 126.497 53.5912C124.767 51.9912 122.658 51.2711 120.188 51.4311L109.797 52.1111H109.788Z" style="fill: rgb(0, 0, 0);"/></g><g id="__id2_sliz6m1k6"><path d="M138.007 76.2209C137.677 71.1409 138.996 66.8309 141.966 63.2909C144.986 59.7509 148.947 57.8209 153.857 57.4909C158.757 57.1709 162.917 58.571 166.327 61.691C169.787 64.811 171.677 68.9109 172.017 73.9909C172.357 79.1209 171.007 83.4309 167.987 86.9309C165.007 90.4709 161.067 92.4009 156.167 92.7209C151.267 93.0409 147.087 91.651 143.627 88.531C140.217 85.411 138.337 81.3109 138.007 76.2309V76.2209ZM144.216 75.8109C144.446 79.3609 145.677 82.1809 147.887 84.2409C150.097 86.3109 152.737 87.2409 155.797 87.0409C158.857 86.8409 161.347 85.5709 163.277 83.2309C165.197 80.8909 166.047 77.941 165.817 74.391C165.587 70.881 164.367 68.091 162.147 66.021C159.887 63.911 157.247 62.951 154.237 63.151C151.227 63.351 148.737 64.641 146.767 67.031C144.847 69.371 143.997 72.3009 144.227 75.8009L144.216 75.8109Z" style="fill: rgb(0, 0, 0);"/></g><g id="__id3_sliz6m1k6"><path d="M181.468 41.4414L184.638 89.7614L178.428 90.1714L175.258 41.8514L181.468 41.4414Z" style="fill: rgb(0, 0, 0);"/></g><g id="__id4_sliz6m1k6"><path d="M195.237 40.541L198.407 88.861L192.197 89.2711L189.027 40.951L195.237 40.541Z" style="fill: rgb(0, 0, 0);"/></g><g id="__id5_sliz6m1k6"><path d="M76.269 60.5003L43.349 62.6603C41.969 62.7503 40.779 61.7103 40.689 60.3303C40.599 58.9503 41.639 57.7603 43.019 57.6703L75.939 55.5103C77.319 55.4203 78.509 56.4603 78.599 57.8403C78.689 59.2203 77.649 60.4103 76.269 60.5003Z" style="fill: rgb(205, 118, 214);"/></g><g id="__id6_sliz6m1k6"><path d="M69.4682 75.5599L44.2982 77.2099C42.9182 77.2999 41.7282 76.2599 41.6382 74.8799C41.5482 73.4999 42.5882 72.3098 43.9682 72.2198L69.1382 70.5699C70.5182 70.4799 71.7082 71.5199 71.7982 72.8999C71.8882 74.2799 70.8482 75.4699 69.4682 75.5599Z" style="fill: rgb(205, 118, 214);"/></g><g id="__id7_sliz6m1k6"><path d="M83.6692 89.2405L45.2592 91.7606C43.8792 91.8506 42.6892 90.8105 42.5992 89.4305C42.5092 88.0505 43.5492 86.8606 44.9292 86.7706L83.3392 84.2505C84.7192 84.1605 85.9092 85.2006 85.9992 86.5806C86.0892 87.9606 85.0492 89.1505 83.6692 89.2405Z" style="fill: rgb(205, 118, 214);"/></g></svg>